M48
;Layer_Color=9474304
;FILE_FORMAT=4:4
METRIC,LZ
;TYPE=PLATED
T01F00S00C0.6570
T02F00S00C0.7000
T03F00S00C0.7500
T04F00S00C0.7620
T05F00S00C0.8128
T06F00S00C0.8400
T07F00S00C0.8636
T08F00S00C0.9900
T09F00S00C1.0600
T10F00S00C1.1000
T11F00S00C1.2900
T12F00S00C1.3200
T13F00S00C2.2000
%
T01
X0073279Y0056628
Y0061508
T02
X0073065Y0078626
X0078065
X0077938Y0085103
X0072938
T03
X0087249Y0089314
Y0091814
T04
X01005Y00362
X01003762Y00384504
T05
X0086106Y0049162
X0093726
Y0051702
Y0054242
Y0056782
Y0059322
Y0061862
Y0064402
Y0066942
Y0069482
Y0072022
Y0074562
Y0077102
Y0079642
Y0082182
X0086106
Y0079642
Y0077102
Y0074562
Y0072022
Y0069482
Y0066942
Y0064402
Y0061862
Y0059322
Y0056782
Y0054242
Y0051702
T06
X00598Y001997
Y002147
Y002297
X00608Y003857
Y004007
Y004157
X00627Y00621
Y00636
Y00651
X00636Y00758
Y00773
Y00788
T07
X00796Y00235
X0078584Y00315
X0078684Y00399
X00785Y00491
X0066816
X0067Y00399
X00669Y00315
X00597Y00311
X0048016
X0067916Y00235
X00594Y00521
X0047716
X00468Y00695
X0058484
X0061084Y00852
X00494
X0081788Y007253
Y0060846
T08
X0071299Y0068248
Y0072748
X0077799
Y0068248
T09
X0036Y001602
Y002638
X00363Y003622
Y004658
X00362Y005652
Y006688
X0036Y007532
Y008568
T10
X004203Y00231
X004457
Y00431
X004203
Y00631
X004457
Y00831
X004203
X0081915Y008396
Y008142
Y007888
X0076962Y0091707
X0074422
X0071882
X0063119Y009158
X0060579
X0058039
X0050673Y0091707
X0048133
X0045593
T11
X00303Y0020976
Y0040788
Y0060473
Y008149
T12
X0004879Y0010593
X00161Y0014976
Y0026976
Y0034788
Y0046788
X0004879
X00283
Y0034788
Y0026976
Y0014976
Y0054473
Y0066473
Y007549
Y008749
X00161
X0004879Y0087428
Y0066473
X00161
Y007549
Y0054473
T13
X0003Y00033
X00264Y00031
X00505
X0075Y00043
X00971Y00044
X00979Y00236
X00873Y00152
X0043Y00342
X00406Y00515
X00035Y00356
X00034Y00199
X0004Y00569
X00043Y00765
X00416Y00716
X00536Y00583
X00974Y00524
X00965Y0095
X00269Y00946
X00045Y00954
M30
