G04*
G04 #@! TF.GenerationSoftware,Altium Limited,Altium Designer,24.4.1 (13)*
G04*
G04 Layer_Physical_Order=1*
G04 Layer_Color=255*
%FSLAX44Y44*%
%MOMM*%
G71*
G04*
G04 #@! TF.SameCoordinates,55CC3119-2231-4384-B402-45A8E2456881*
G04*
G04*
G04 #@! TF.FilePolarity,Positive*
G04*
G01*
G75*
%ADD23R,1.7000X1.7000*%
%ADD24C,1.7000*%
%ADD33C,1.3208*%
%ADD34R,1.3208X1.3208*%
%ADD37C,1.2000*%
%ADD38R,1.2000X1.2000*%
%ADD39C,1.3716*%
%ADD40R,1.3716X1.3716*%
%ADD41R,1.3716X1.3716*%
%ADD44C,0.5000*%
%ADD45C,3.0000*%
%ADD46C,0.4000*%
%ADD47C,2.2000*%
%ADD48C,1.5900*%
%ADD49R,1.5900X1.5900*%
%ADD50O,2.0800X1.0400*%
%ADD51C,1.0070*%
%ADD52C,1.1000*%
%ADD53R,1.1000X1.1000*%
%ADD54R,1.6500X1.6500*%
%ADD55C,1.6500*%
%ADD56R,1.6500X1.6500*%
%ADD57R,1.9800X1.9800*%
%ADD58C,1.9350*%
%ADD59C,1.9800*%
%ADD60C,1.4980*%
%ADD61R,1.4980X1.4980*%
%ADD62C,3.0000*%
G04:AMPARAMS|DCode=63|XSize=2mm|YSize=1.524mm|CornerRadius=0.381mm|HoleSize=0mm|Usage=FLASHONLY|Rotation=0.000|XOffset=0mm|YOffset=0mm|HoleType=Round|Shape=RoundedRectangle|*
%AMROUNDEDRECTD63*
21,1,2.0000,0.7620,0,0,0.0*
21,1,1.2380,1.5240,0,0,0.0*
1,1,0.7620,0.6190,-0.3810*
1,1,0.7620,-0.6190,-0.3810*
1,1,0.7620,-0.6190,0.3810*
1,1,0.7620,0.6190,0.3810*
%
%ADD63ROUNDEDRECTD63*%
G36*
X48790Y90930D02*
X24660D01*
X23183D01*
X20285Y91506D01*
X17555Y92637D01*
X15098Y94279D01*
X13009Y96368D01*
X11367Y98825D01*
X10236Y101555D01*
X9660Y104453D01*
Y107407D01*
X10236Y110305D01*
X11367Y113035D01*
X13009Y115492D01*
X15098Y117581D01*
X17555Y119223D01*
X20285Y120353D01*
X23183Y120930D01*
X24660D01*
D01*
X48790D01*
Y90930D01*
D02*
G37*
G36*
Y452880D02*
X24660D01*
X23183D01*
X20285Y453456D01*
X17555Y454587D01*
X15098Y456229D01*
X13009Y458318D01*
X11367Y460775D01*
X10236Y463505D01*
X9660Y466403D01*
Y469357D01*
X10236Y472255D01*
X11367Y474985D01*
X13009Y477442D01*
X15098Y479531D01*
X17555Y481173D01*
X20285Y482304D01*
X23183Y482880D01*
X24660D01*
D01*
X48790D01*
Y452880D01*
D02*
G37*
G36*
Y649730D02*
X24660D01*
X23183D01*
X20285Y650306D01*
X17555Y651437D01*
X15098Y653079D01*
X13009Y655168D01*
X11367Y657625D01*
X10236Y660355D01*
X9660Y663253D01*
Y666207D01*
X10236Y669105D01*
X11367Y671835D01*
X13009Y674292D01*
X15098Y676381D01*
X17555Y678023D01*
X20285Y679154D01*
X23183Y679730D01*
X24660D01*
D01*
X48790D01*
Y649730D01*
D02*
G37*
G36*
Y859280D02*
X24660D01*
X23183D01*
X20285Y859856D01*
X17555Y860987D01*
X15098Y862629D01*
X13009Y864718D01*
X11367Y867175D01*
X10236Y869905D01*
X9660Y872803D01*
Y875757D01*
X10236Y878655D01*
X11367Y881385D01*
X13009Y883842D01*
X15098Y885931D01*
X17555Y887573D01*
X20285Y888704D01*
X23183Y889280D01*
X24660D01*
D01*
X48790D01*
Y859280D01*
D02*
G37*
D23*
X420300Y831000D02*
D03*
Y431000D02*
D03*
Y231000D02*
D03*
Y631000D02*
D03*
D24*
X445700Y831000D02*
D03*
Y431000D02*
D03*
Y231000D02*
D03*
Y631000D02*
D03*
D33*
X937260Y821820D02*
D03*
Y796420D02*
D03*
Y771020D02*
D03*
Y745620D02*
D03*
Y720220D02*
D03*
Y694820D02*
D03*
Y669420D02*
D03*
Y644020D02*
D03*
Y618620D02*
D03*
Y593220D02*
D03*
Y567820D02*
D03*
Y542420D02*
D03*
Y517020D02*
D03*
Y491620D02*
D03*
X861060D02*
D03*
Y517020D02*
D03*
Y542420D02*
D03*
Y567820D02*
D03*
Y593220D02*
D03*
Y618620D02*
D03*
Y644020D02*
D03*
Y669420D02*
D03*
Y694820D02*
D03*
Y720220D02*
D03*
Y745620D02*
D03*
Y771020D02*
D03*
Y796420D02*
D03*
D34*
Y821820D02*
D03*
D37*
X780650Y786260D02*
D03*
X779380Y851030D02*
D03*
D38*
X730650Y786260D02*
D03*
X729380Y851030D02*
D03*
D39*
X817880Y608460D02*
D03*
X584840Y695000D02*
D03*
X594000Y521000D02*
D03*
X597000Y311000D02*
D03*
X610840Y852000D02*
D03*
X785000Y491000D02*
D03*
X786840Y399000D02*
D03*
X785840Y315000D02*
D03*
X796000Y235000D02*
D03*
D40*
X817880Y725300D02*
D03*
D41*
X468000Y695000D02*
D03*
X477160Y521000D02*
D03*
X480160Y311000D02*
D03*
X494000Y852000D02*
D03*
X668160Y491000D02*
D03*
X670000Y399000D02*
D03*
X669000Y315000D02*
D03*
X679160Y235000D02*
D03*
D44*
X651000Y480000D02*
Y624982D01*
X670000Y399000D02*
Y461000D01*
X651000Y480000D02*
X670000Y461000D01*
X641015Y634967D02*
X651000Y624982D01*
X588000Y286000D02*
X597000Y295000D01*
X378200Y282000D02*
X382200Y286000D01*
X588000D01*
X588180Y894210D02*
X703210D01*
X718820Y904370D02*
Y909820D01*
X703210Y894210D02*
X718820Y909820D01*
Y917070D01*
X580390Y902000D02*
Y910610D01*
Y902000D02*
X588180Y894210D01*
X576979Y910050D02*
X577539Y910610D01*
X566940Y892940D02*
X576979Y902979D01*
X577539Y910610D02*
X580390D01*
X576979Y902979D02*
Y910050D01*
X349200Y253000D02*
X360000Y263800D01*
X378200Y282000D01*
X597000Y295000D02*
Y311000D01*
X378200Y282000D02*
X461071D01*
X462060Y892940D02*
X566940D01*
X580390Y910610D02*
Y915800D01*
X349200Y656000D02*
X362000Y668800D01*
X283000Y664730D02*
X284599D01*
X293329Y656000D01*
X349200D01*
X345200Y768000D02*
X360000Y753200D01*
X296100Y768000D02*
X345200D01*
X283000Y754900D02*
X296100Y768000D01*
X360000Y753200D02*
X381200D01*
X292880Y338000D02*
X338800D01*
X283000Y347880D02*
X292880Y338000D01*
X338800D02*
X363000Y362200D01*
X299760Y253000D02*
X349200D01*
X283000Y269760D02*
X299760Y253000D01*
X283000Y149760D02*
X302240Y169000D01*
X351200D01*
X360000Y160200D01*
X389200D01*
X283000Y467880D02*
X300120Y485000D01*
X343800D02*
X363000Y465800D01*
X300120Y485000D02*
X343800D01*
X363000Y362200D02*
X381200D01*
X576000Y329641D02*
X594641Y311000D01*
X576000Y329641D02*
Y503000D01*
X420300Y792300D02*
Y831000D01*
X381200Y753200D02*
X420300Y792300D01*
X396200Y565200D02*
X420300Y589300D01*
X362000Y565200D02*
X396200D01*
X420300Y589300D02*
Y631000D01*
X881000Y334000D02*
X931504Y384504D01*
X1003762D01*
X818000Y235000D02*
X861060Y278060D01*
X796000Y235000D02*
X818000D01*
X861060Y278060D02*
Y491620D01*
X881000Y261742D02*
Y334000D01*
X791258Y172000D02*
X881000Y261742D01*
X808000Y315000D02*
X838000Y345000D01*
Y506000D02*
X847449Y515449D01*
X838000Y345000D02*
Y506000D01*
X785840Y315000D02*
X808000D01*
X786840Y399000D02*
X805000D01*
X822000Y416000D02*
Y520000D01*
X805000Y399000D02*
X822000Y416000D01*
X461071Y282000D02*
X571071Y172000D01*
X791258D01*
X626300Y400700D02*
X669000Y358000D01*
Y315000D02*
Y358000D01*
X608000Y400700D02*
X626300D01*
X576000Y503000D02*
X594000Y521000D01*
X668160Y491000D02*
Y747822D01*
X645442Y770540D02*
X668160Y747822D01*
X645121Y770540D02*
X645442D01*
X642661Y773000D02*
X645121Y770540D01*
X636000Y773000D02*
X642661D01*
X627000Y636000D02*
X628033Y634967D01*
X641015D01*
X684000Y597560D02*
Y739610D01*
Y597560D02*
X715280Y566280D01*
X732790D01*
X658860Y214700D02*
X679160Y235000D01*
X598000Y214700D02*
X658860D01*
X859490Y515449D02*
X861060Y517020D01*
X847449Y515449D02*
X859490D01*
X860640Y542000D02*
X861060Y542420D01*
X822000Y520000D02*
X844000Y542000D01*
X860640D01*
X820820Y567820D02*
X861060D01*
X785000Y532000D02*
X820820Y567820D01*
X785000Y491000D02*
Y532000D01*
X420300Y191300D02*
Y231000D01*
X389200Y160200D02*
X420300Y191300D01*
Y401300D02*
Y431000D01*
X381200Y362200D02*
X420300Y401300D01*
X341530Y544730D02*
X362000Y565200D01*
X283000Y544730D02*
X341530D01*
X341900Y874900D02*
X360000Y856800D01*
X283000Y874900D02*
X341900D01*
X684000Y739610D02*
X730650Y786260D01*
X584840Y695000D02*
Y826000D01*
X610840Y852000D01*
X594641Y311000D02*
X597000D01*
X584840Y532145D02*
X594000Y522985D01*
X584840Y532145D02*
Y695000D01*
X594000Y521000D02*
Y522985D01*
X846740Y913260D02*
X866860Y893140D01*
X787400Y913260D02*
X846740D01*
X770890Y896750D02*
X787400Y913260D01*
X912000Y538000D02*
X931410Y518591D01*
X912000Y586176D02*
X931824Y606000D01*
X912000Y538000D02*
Y586176D01*
X931410Y518591D02*
X935689D01*
X937260Y517020D01*
X898000Y416000D02*
X929000Y385000D01*
X732790Y601210D02*
X740780Y593220D01*
X861060D01*
X732790Y601210D02*
Y615080D01*
X969000Y597020D02*
Y867550D01*
X886460Y950090D02*
X969000Y867550D01*
X952165Y580185D02*
X969000Y597020D01*
X763000Y853300D02*
X802840Y893140D01*
X763000Y646830D02*
Y853300D01*
Y646830D02*
X799232Y610598D01*
X981000Y596320D02*
Y870790D01*
X891540Y960250D02*
X981000Y870790D01*
X952500Y567820D02*
X981000Y596320D01*
X946230Y606000D02*
X958850Y618620D01*
X747934Y581424D02*
X853576D01*
X732790Y566280D02*
X747934Y581424D01*
X865731D02*
X873424D01*
X879000Y587000D01*
Y600680D01*
X861060Y618620D02*
X879000Y600680D01*
X913082Y618082D02*
X913620Y618620D01*
X898000Y603000D02*
X913082Y618082D01*
X907267D02*
X913082D01*
X898000Y416000D02*
Y603000D01*
X913620Y618620D02*
X937260D01*
X905507Y619613D02*
X905735D01*
X874000Y631000D02*
X894120D01*
X905507Y619613D01*
X905735D02*
X907267Y618082D01*
X924000Y573000D02*
X931184Y580185D01*
X924000Y558567D02*
Y573000D01*
Y558567D02*
X937260Y545307D01*
X819658Y608460D02*
X842198Y631000D01*
X882580Y669420D02*
X930496Y621504D01*
X861060Y669420D02*
X882580D01*
X802840Y893140D02*
X866860D01*
X872490D01*
X455930Y899070D02*
Y917070D01*
Y899070D02*
X462060Y892940D01*
X817880Y608460D02*
X819658D01*
X799232Y610598D02*
X815742D01*
X817880Y608460D01*
X726440Y896750D02*
X770890D01*
X718820Y904370D02*
X726440Y896750D01*
X481330Y917070D02*
Y943330D01*
X498250Y960250D02*
X891540D01*
X481330Y943330D02*
X498250Y960250D01*
X746000Y621670D02*
Y834410D01*
X729380Y851030D02*
X746000Y834410D01*
X739814Y615484D02*
X746000Y621670D01*
X958850Y618620D02*
Y865000D01*
X882650Y941200D02*
X958850Y865000D01*
X619760Y950090D02*
X886460D01*
X605790Y936120D02*
X619760Y950090D01*
X732790Y615080D02*
X733194Y615484D01*
X739814D01*
X798830Y819280D02*
X819150Y839600D01*
X777990Y682480D02*
X803000D01*
X798830Y744350D02*
X817880Y725300D01*
X798830Y744350D02*
Y819280D01*
X843280Y839600D02*
X861060Y821820D01*
X843280Y788800D02*
X861060Y771020D01*
X843280Y814200D02*
X861060Y796420D01*
X817880Y697360D02*
Y725300D01*
X803000Y682480D02*
X817880Y697360D01*
X744220Y917070D02*
X746120Y918970D01*
Y929130D01*
X758190Y941200D01*
X819150Y839600D02*
X843280D01*
X819150Y788800D02*
X843280D01*
X819150Y814200D02*
X843280D01*
X605790Y915800D02*
Y936120D01*
X937260Y542420D02*
Y545307D01*
X758190Y941200D02*
X882650D01*
X937260Y567820D02*
X952500D01*
D45*
X255760Y209760D02*
X303000D01*
X220000Y174000D02*
X255760Y209760D01*
X51510Y877000D02*
X158900D01*
X48790Y874280D02*
X51510Y877000D01*
X50520Y663000D02*
X159270D01*
X48790Y467880D02*
X161000D01*
X163000Y221917D02*
X205403Y264320D01*
X163000Y151760D02*
Y221917D01*
X205403Y399300D02*
X213983Y407880D01*
X205403Y797326D02*
X222976Y814900D01*
X205403Y599960D02*
Y797326D01*
Y399300D02*
Y599960D01*
X213983Y407880D02*
X303000D01*
X210173Y604730D02*
X303000D01*
X205403Y264320D02*
Y399300D01*
X222976Y814900D02*
X303000D01*
X205403Y599960D02*
X210173Y604730D01*
X48790Y874280D02*
X49410Y874900D01*
X220000Y123504D02*
Y174000D01*
X48790Y105930D02*
X202426D01*
X220000Y123504D01*
D46*
X931824Y606000D02*
X946230D01*
X853576Y581424D02*
X865731D01*
X842198Y631000D02*
X874000D01*
X931184Y580185D02*
X952165D01*
D47*
X536000Y583000D02*
D03*
X873000Y152000D02*
D03*
X750000Y43000D02*
D03*
X505000Y31000D02*
D03*
X979000Y236000D02*
D03*
X971000Y44000D02*
D03*
X264000Y31000D02*
D03*
X430000Y342000D02*
D03*
X974000Y524000D02*
D03*
X965000Y950000D02*
D03*
X269000Y946000D02*
D03*
X416000Y716000D02*
D03*
X406000Y515000D02*
D03*
X30000Y33000D02*
D03*
X34000Y199000D02*
D03*
X35000Y356000D02*
D03*
X40000Y569000D02*
D03*
X43000Y765000D02*
D03*
X45000Y954000D02*
D03*
D48*
X360000Y753200D02*
D03*
X362000Y565200D02*
D03*
X363000Y362200D02*
D03*
X360000Y160200D02*
D03*
D49*
Y856800D02*
D03*
X362000Y668800D02*
D03*
X363000Y465800D02*
D03*
X360000Y263800D02*
D03*
D50*
X636000Y788000D02*
D03*
Y773000D02*
D03*
Y758000D02*
D03*
X627000Y621000D02*
D03*
Y636000D02*
D03*
Y651000D02*
D03*
X608000Y415700D02*
D03*
Y400700D02*
D03*
Y385700D02*
D03*
X598000Y199700D02*
D03*
Y214700D02*
D03*
Y229700D02*
D03*
D51*
X732790Y566280D02*
D03*
Y615080D02*
D03*
D52*
X872490Y918140D02*
D03*
D53*
Y893140D02*
D03*
D54*
X455930Y917070D02*
D03*
X580390Y915800D02*
D03*
X718820Y917070D02*
D03*
D55*
X481330D02*
D03*
X506730D02*
D03*
X605790Y915800D02*
D03*
X631190D02*
D03*
X744220Y917070D02*
D03*
X769620D02*
D03*
X819150Y814200D02*
D03*
Y788800D02*
D03*
D56*
Y839600D02*
D03*
D57*
X283000Y544730D02*
D03*
Y347880D02*
D03*
Y149760D02*
D03*
Y754900D02*
D03*
D58*
X303000Y604730D02*
D03*
Y407880D02*
D03*
Y209760D02*
D03*
Y814900D02*
D03*
D59*
X283000Y664730D02*
D03*
X161000D02*
D03*
Y544730D02*
D03*
X283000Y467880D02*
D03*
X161000D02*
D03*
Y347880D02*
D03*
X283000Y269760D02*
D03*
X161000D02*
D03*
Y149760D02*
D03*
X283000Y874900D02*
D03*
X161000D02*
D03*
Y754900D02*
D03*
D60*
X712990Y682480D02*
D03*
X777990D02*
D03*
Y727480D02*
D03*
D61*
X712990D02*
D03*
D62*
X48790Y874280D02*
D03*
Y664730D02*
D03*
Y467880D02*
D03*
Y105930D02*
D03*
D63*
X1003762Y384504D02*
D03*
X1005000Y362000D02*
D03*
M02*
