G04*
G04 #@! TF.GenerationSoftware,Altium Limited,Altium Designer,24.4.1 (13)*
G04*
G04 Layer_Color=16711935*
%FSLAX44Y44*%
%MOMM*%
G71*
G04*
G04 #@! TF.SameCoordinates,55CC3119-2231-4384-B402-45A8E2456881*
G04*
G04*
G04 #@! TF.FilePolarity,Negative*
G04*
G01*
G75*
%ADD18C,2.4032*%
%ADD19C,1.7932*%
%ADD20R,1.7932X1.7932*%
%ADD21O,2.2832X1.2432*%
%ADD22C,1.2102*%
%ADD23R,1.7000X1.7000*%
%ADD24C,1.7000*%
%ADD25C,1.3032*%
%ADD26R,1.3032X1.3032*%
%ADD27R,1.8532X1.8532*%
%ADD28C,1.8532*%
%ADD29R,1.8532X1.8532*%
%ADD30R,2.1832X2.1832*%
%ADD31C,2.1382*%
%ADD32C,2.1832*%
%ADD33C,1.3208*%
%ADD34R,1.3208X1.3208*%
%ADD35C,1.7012*%
%ADD36R,1.7012X1.7012*%
%ADD37C,1.2000*%
%ADD38R,1.2000X1.2000*%
%ADD39C,1.3716*%
%ADD40R,1.3716X1.3716*%
%ADD41R,1.3716X1.3716*%
%ADD42C,3.2032*%
G04:AMPARAMS|DCode=43|XSize=2.2032mm|YSize=1.7272mm|CornerRadius=0.4826mm|HoleSize=0mm|Usage=FLASHONLY|Rotation=0.000|XOffset=0mm|YOffset=0mm|HoleType=Round|Shape=RoundedRectangle|*
%AMROUNDEDRECTD43*
21,1,2.2032,0.7620,0,0,0.0*
21,1,1.2380,1.7272,0,0,0.0*
1,1,0.9652,0.6190,-0.3810*
1,1,0.9652,-0.6190,-0.3810*
1,1,0.9652,-0.6190,0.3810*
1,1,0.9652,0.6190,0.3810*
%
%ADD43ROUNDEDRECTD43*%
D18*
X536000Y583000D02*
D03*
X873000Y152000D02*
D03*
X750000Y43000D02*
D03*
X505000Y31000D02*
D03*
X979000Y236000D02*
D03*
X971000Y44000D02*
D03*
X264000Y31000D02*
D03*
X430000Y342000D02*
D03*
X974000Y524000D02*
D03*
X965000Y950000D02*
D03*
X269000Y946000D02*
D03*
X416000Y716000D02*
D03*
X406000Y515000D02*
D03*
X30000Y33000D02*
D03*
X34000Y199000D02*
D03*
X35000Y356000D02*
D03*
X40000Y569000D02*
D03*
X43000Y765000D02*
D03*
X45000Y954000D02*
D03*
D19*
X360000Y753200D02*
D03*
X362000Y565200D02*
D03*
X363000Y362200D02*
D03*
X360000Y160200D02*
D03*
D20*
Y856800D02*
D03*
X362000Y668800D02*
D03*
X363000Y465800D02*
D03*
X360000Y263800D02*
D03*
D21*
X636000Y788000D02*
D03*
Y773000D02*
D03*
Y758000D02*
D03*
X627000Y621000D02*
D03*
Y636000D02*
D03*
Y651000D02*
D03*
X608000Y415700D02*
D03*
Y400700D02*
D03*
Y385700D02*
D03*
X598000Y199700D02*
D03*
Y214700D02*
D03*
Y229700D02*
D03*
D22*
X732790Y566280D02*
D03*
Y615080D02*
D03*
D23*
X420300Y831000D02*
D03*
Y431000D02*
D03*
Y231000D02*
D03*
Y631000D02*
D03*
D24*
X445700Y831000D02*
D03*
Y431000D02*
D03*
Y231000D02*
D03*
Y631000D02*
D03*
D25*
X872490Y918140D02*
D03*
D26*
Y893140D02*
D03*
D27*
X455930Y917070D02*
D03*
X580390Y915800D02*
D03*
X718820Y917070D02*
D03*
D28*
X481330D02*
D03*
X506730D02*
D03*
X605790Y915800D02*
D03*
X631190D02*
D03*
X744220Y917070D02*
D03*
X769620D02*
D03*
X819150Y814200D02*
D03*
Y788800D02*
D03*
D29*
Y839600D02*
D03*
D30*
X283000Y544730D02*
D03*
Y347880D02*
D03*
Y149760D02*
D03*
Y754900D02*
D03*
D31*
X303000Y604730D02*
D03*
Y407880D02*
D03*
Y209760D02*
D03*
Y814900D02*
D03*
D32*
X283000Y664730D02*
D03*
X161000D02*
D03*
Y544730D02*
D03*
X283000Y467880D02*
D03*
X161000D02*
D03*
Y347880D02*
D03*
X283000Y269760D02*
D03*
X161000D02*
D03*
Y149760D02*
D03*
X283000Y874900D02*
D03*
X161000D02*
D03*
Y754900D02*
D03*
D33*
X937260Y821820D02*
D03*
Y796420D02*
D03*
Y771020D02*
D03*
Y745620D02*
D03*
Y720220D02*
D03*
Y694820D02*
D03*
Y669420D02*
D03*
Y644020D02*
D03*
Y618620D02*
D03*
Y593220D02*
D03*
Y567820D02*
D03*
Y542420D02*
D03*
Y517020D02*
D03*
Y491620D02*
D03*
X861060D02*
D03*
Y517020D02*
D03*
Y542420D02*
D03*
Y567820D02*
D03*
Y593220D02*
D03*
Y618620D02*
D03*
Y644020D02*
D03*
Y669420D02*
D03*
Y694820D02*
D03*
Y720220D02*
D03*
Y745620D02*
D03*
Y771020D02*
D03*
Y796420D02*
D03*
D34*
Y821820D02*
D03*
D35*
X712990Y682480D02*
D03*
X777990D02*
D03*
Y727480D02*
D03*
D36*
X712990D02*
D03*
D37*
X780650Y786260D02*
D03*
X779380Y851030D02*
D03*
D38*
X730650Y786260D02*
D03*
X729380Y851030D02*
D03*
D39*
X817880Y608460D02*
D03*
X584840Y695000D02*
D03*
X594000Y521000D02*
D03*
X597000Y311000D02*
D03*
X610840Y852000D02*
D03*
X785000Y491000D02*
D03*
X786840Y399000D02*
D03*
X785840Y315000D02*
D03*
X796000Y235000D02*
D03*
D40*
X817880Y725300D02*
D03*
D41*
X468000Y695000D02*
D03*
X477160Y521000D02*
D03*
X480160Y311000D02*
D03*
X494000Y852000D02*
D03*
X668160Y491000D02*
D03*
X670000Y399000D02*
D03*
X669000Y315000D02*
D03*
X679160Y235000D02*
D03*
D42*
X48790Y874280D02*
D03*
Y664730D02*
D03*
Y467880D02*
D03*
Y105930D02*
D03*
D43*
X1003762Y384504D02*
D03*
X1005000Y362000D02*
D03*
M02*
